<svg xmlns="http://www.w3.org/2000/svg" xmlns:xlink="http://www.w3.org/1999/xlink" width="500" zoomAndPan="magnify" viewBox="0 0 375 149.999998" height="200" preserveAspectRatio="xMidYMid meet" version="1.0"><defs><g/></defs><g fill="#ffffff" fill-opacity="1"><g transform="translate(8.172735, 60.749998)"><g><path d="M 16.425781 0 L 57.378906 0 C 58.382812 0 59.171875 -0.859375 59.171875 -1.863281 L 59.171875 -17.570312 C 59.171875 -18.574219 58.382812 -19.363281 57.378906 -19.363281 L 25.101562 -19.363281 C 24.097656 -19.363281 23.308594 -20.152344 23.308594 -21.15625 L 23.308594 -36.21875 C 23.308594 -37.222656 24.097656 -38.011719 25.101562 -38.011719 L 57.378906 -38.011719 C 58.382812 -38.011719 59.171875 -38.875 59.171875 -39.878906 L 59.171875 -55.585938 C 59.171875 -56.589844 58.382812 -57.378906 57.378906 -57.378906 L 16.425781 -57.378906 C 7.960938 -57.378906 1.792969 -51.210938 1.792969 -42.746094 L 1.792969 -14.632812 C 1.792969 -6.167969 7.960938 0 16.425781 0 Z M 16.425781 0 "/></g></g></g><g fill="#ffffff" fill-opacity="1"><g transform="translate(71.993044, 60.749998)"><g><path d="M 16.425781 0 L 33.78125 0 C 42.246094 0 48.414062 -6.167969 48.414062 -14.632812 L 48.414062 -42.746094 C 48.414062 -51.210938 42.246094 -57.378906 33.78125 -57.378906 L 16.425781 -57.378906 C 7.960938 -57.378906 1.792969 -51.210938 1.792969 -42.746094 L 1.792969 -14.632812 C 1.792969 -6.167969 7.960938 0 16.425781 0 Z M 25.101562 -16.496094 C 24.097656 -16.496094 23.308594 -17.285156 23.308594 -18.289062 L 23.308594 -39.089844 C 23.308594 -40.09375 24.097656 -40.882812 25.101562 -40.882812 C 26.105469 -40.882812 26.894531 -40.09375 26.894531 -39.089844 L 26.894531 -18.289062 C 26.894531 -17.285156 26.105469 -16.496094 25.101562 -16.496094 Z M 25.101562 -16.496094 "/></g></g></g><g fill="#ffffff" fill-opacity="1"><g transform="translate(125.065034, 60.749998)"><g><path d="M 3.585938 0 L 33.78125 0 C 42.246094 0 48.414062 -6.167969 48.414062 -14.632812 L 48.414062 -42.746094 C 48.414062 -51.210938 42.246094 -57.378906 33.78125 -57.378906 L 3.585938 -57.378906 C 2.582031 -57.378906 1.792969 -56.589844 1.792969 -55.585938 L 1.792969 -1.792969 C 1.792969 -0.789062 2.582031 0 3.585938 0 Z M 25.101562 -16.496094 C 24.097656 -16.496094 23.308594 -17.285156 23.308594 -18.289062 L 23.308594 -39.089844 C 23.308594 -40.09375 24.097656 -40.882812 25.101562 -40.882812 C 26.105469 -40.882812 26.894531 -40.09375 26.894531 -39.089844 L 26.894531 -18.289062 C 26.894531 -17.285156 26.105469 -16.496094 25.101562 -16.496094 Z M 25.101562 -16.496094 "/></g></g></g><g fill="#ffffff" fill-opacity="1"><g transform="translate(178.137023, 60.749998)"><g><path d="M 3.65625 0 L 57.449219 0 C 58.453125 0 59.242188 -0.789062 59.242188 -1.792969 L 59.242188 -15.421875 C 59.242188 -16.425781 58.382812 -17.214844 57.378906 -17.214844 L 25.101562 -17.214844 C 24.097656 -17.214844 23.308594 -18.003906 23.308594 -19.007812 C 23.308594 -20.011719 24.097656 -20.800781 25.101562 -20.800781 L 54.582031 -20.800781 C 55.585938 -20.800781 56.375 -21.589844 56.375 -22.59375 L 56.375 -34.785156 C 56.375 -35.789062 55.511719 -36.578125 54.507812 -36.578125 L 25.101562 -36.578125 C 24.097656 -36.578125 23.308594 -37.367188 23.308594 -38.371094 C 23.308594 -39.375 24.097656 -40.164062 25.101562 -40.164062 L 57.449219 -40.164062 C 58.453125 -40.164062 59.242188 -40.953125 59.242188 -41.957031 L 59.242188 -55.585938 C 59.242188 -56.589844 58.453125 -57.378906 57.449219 -57.378906 L 3.585938 -57.378906 C 2.582031 -57.378906 1.792969 -56.589844 1.792969 -55.585938 L 1.792969 -1.792969 C 1.792969 -0.789062 2.652344 0 3.65625 0 Z M 3.65625 0 "/></g></g></g><g fill="#ffffff" fill-opacity="1"><g transform="translate(242.038528, 60.749998)"><g><path d="M 3.585938 0 L 21.515625 0 C 22.519531 0 23.308594 -0.859375 23.308594 -1.863281 L 23.308594 -18.648438 C 23.308594 -19.652344 24.097656 -20.441406 25.101562 -20.441406 L 35.859375 -20.441406 C 36.867188 -20.441406 37.65625 -19.652344 37.65625 -18.648438 L 37.65625 -1.792969 C 37.65625 -0.789062 38.441406 0 39.449219 0 L 57.378906 0 C 58.382812 0 59.171875 -0.859375 59.171875 -1.863281 L 59.171875 -19.582031 C 59.171875 -23.8125 56.085938 -26.894531 51.855469 -26.894531 L 51.210938 -26.894531 C 50.207031 -26.894531 49.417969 -27.683594 49.417969 -28.6875 C 49.417969 -29.691406 50.207031 -30.480469 51.210938 -30.480469 L 51.855469 -30.480469 C 56.085938 -30.480469 59.171875 -33.566406 59.171875 -37.796875 L 59.171875 -45.6875 C 59.171875 -52.429688 54.222656 -57.378906 47.480469 -57.378906 L 3.585938 -57.378906 C 2.582031 -57.378906 1.792969 -56.589844 1.792969 -55.585938 L 1.792969 -1.792969 C 1.792969 -0.789062 2.582031 0 3.585938 0 Z M 25.101562 -36.9375 C 24.097656 -36.9375 23.308594 -37.726562 23.308594 -38.730469 C 23.308594 -39.734375 24.097656 -40.523438 25.101562 -40.523438 L 35.859375 -40.523438 C 36.867188 -40.523438 37.65625 -39.734375 37.65625 -38.730469 C 37.65625 -37.726562 36.867188 -36.9375 35.859375 -36.9375 Z M 25.101562 -36.9375 "/></g></g></g><g fill="#ffffff" fill-opacity="1"><g transform="translate(305.868312, 60.749998)"><g><path d="M 3.585938 0 L 44.539062 0 C 53.003906 0 59.171875 -6.167969 59.171875 -14.632812 L 59.171875 -22.664062 C 59.171875 -31.128906 53.003906 -37.296875 44.539062 -37.296875 L 25.101562 -37.296875 C 24.097656 -37.296875 23.308594 -38.085938 23.308594 -39.089844 C 23.308594 -40.09375 24.097656 -40.882812 25.101562 -40.882812 L 57.378906 -40.882812 C 58.382812 -40.882812 59.171875 -41.671875 59.171875 -42.675781 L 59.171875 -55.585938 C 59.171875 -56.589844 58.382812 -57.378906 57.378906 -57.378906 L 16.425781 -57.378906 C 7.960938 -57.378906 1.792969 -51.210938 1.792969 -42.746094 L 1.792969 -34.714844 C 1.792969 -26.25 7.960938 -20.082031 16.425781 -20.082031 L 35.859375 -20.082031 C 36.867188 -20.082031 37.65625 -19.292969 37.65625 -18.289062 C 37.65625 -17.285156 36.867188 -16.496094 35.859375 -16.496094 L 3.585938 -16.496094 C 2.582031 -16.496094 1.792969 -15.707031 1.792969 -14.703125 L 1.792969 -1.792969 C 1.792969 -0.789062 2.582031 0 3.585938 0 Z M 3.585938 0 "/></g></g></g><g fill="#ffffff" fill-opacity="1"><g transform="translate(47.184452, 146.249993)"><g><path d="M 3.585938 0 L 21.515625 0 C 22.519531 0 23.308594 -0.859375 23.308594 -1.863281 L 23.308594 -18.648438 C 23.308594 -19.652344 24.097656 -20.441406 25.101562 -20.441406 L 35.859375 -20.441406 C 36.867188 -20.441406 37.65625 -19.652344 37.65625 -18.648438 L 37.65625 -1.792969 C 37.65625 -0.789062 38.441406 0 39.449219 0 L 57.378906 0 C 58.382812 0 59.171875 -0.859375 59.171875 -1.863281 L 59.171875 -19.582031 C 59.171875 -23.8125 56.085938 -26.894531 51.855469 -26.894531 L 51.210938 -26.894531 C 50.207031 -26.894531 49.417969 -27.683594 49.417969 -28.6875 C 49.417969 -29.691406 50.207031 -30.480469 51.210938 -30.480469 L 51.855469 -30.480469 C 56.085938 -30.480469 59.171875 -33.566406 59.171875 -37.796875 L 59.171875 -45.6875 C 59.171875 -52.429688 54.222656 -57.378906 47.480469 -57.378906 L 3.585938 -57.378906 C 2.582031 -57.378906 1.792969 -56.589844 1.792969 -55.585938 L 1.792969 -1.792969 C 1.792969 -0.789062 2.582031 0 3.585938 0 Z M 25.101562 -36.9375 C 24.097656 -36.9375 23.308594 -37.726562 23.308594 -38.730469 C 23.308594 -39.734375 24.097656 -40.523438 25.101562 -40.523438 L 35.859375 -40.523438 C 36.867188 -40.523438 37.65625 -39.734375 37.65625 -38.730469 C 37.65625 -37.726562 36.867188 -36.9375 35.859375 -36.9375 Z M 25.101562 -36.9375 "/></g></g></g><g fill="#ffffff" fill-opacity="1"><g transform="translate(111.014242, 146.249993)"><g><path d="M 16.425781 0 L 33.78125 0 C 42.246094 0 48.414062 -6.167969 48.414062 -14.632812 L 48.414062 -42.746094 C 48.414062 -51.210938 42.246094 -57.378906 33.78125 -57.378906 L 16.425781 -57.378906 C 7.960938 -57.378906 1.792969 -51.210938 1.792969 -42.746094 L 1.792969 -14.632812 C 1.792969 -6.167969 7.960938 0 16.425781 0 Z M 25.101562 -16.496094 C 24.097656 -16.496094 23.308594 -17.285156 23.308594 -18.289062 L 23.308594 -39.089844 C 23.308594 -40.09375 24.097656 -40.882812 25.101562 -40.882812 C 26.105469 -40.882812 26.894531 -40.09375 26.894531 -39.089844 L 26.894531 -18.289062 C 26.894531 -17.285156 26.105469 -16.496094 25.101562 -16.496094 Z M 25.101562 -16.496094 "/></g></g></g><g fill="#ffffff" fill-opacity="1"><g transform="translate(164.086232, 146.249993)"><g><path d="M 16.425781 0 L 33.78125 0 C 42.246094 0 48.414062 -6.167969 48.414062 -14.632812 L 48.414062 -55.585938 C 48.414062 -56.589844 47.625 -57.378906 46.621094 -57.378906 L 28.761719 -57.378906 C 27.757812 -57.378906 26.894531 -56.589844 26.894531 -55.585938 L 26.894531 -21.15625 C 26.894531 -20.152344 26.105469 -19.363281 25.101562 -19.363281 C 24.097656 -19.363281 23.308594 -20.152344 23.308594 -21.15625 L 23.308594 -55.585938 C 23.308594 -56.589844 22.519531 -57.378906 21.515625 -57.378906 L 3.65625 -57.378906 C 2.652344 -57.378906 1.792969 -56.589844 1.792969 -55.585938 L 1.792969 -14.632812 C 1.792969 -6.167969 7.960938 0 16.425781 0 Z M 16.425781 0 "/></g></g></g><g fill="#ffffff" fill-opacity="1"><g transform="translate(217.158227, 146.249993)"><g><path d="M 14.488281 0 L 32.347656 0 C 33.351562 0 34.140625 -0.859375 34.140625 -1.863281 L 34.140625 -36.21875 C 34.140625 -37.222656 35 -38.011719 36.003906 -38.011719 L 43.175781 -38.011719 C 44.179688 -38.011719 44.96875 -38.800781 44.96875 -39.804688 L 44.96875 -55.585938 C 44.96875 -56.515625 44.179688 -57.378906 43.175781 -57.378906 L 3.585938 -57.449219 C 2.582031 -57.449219 1.792969 -56.660156 1.792969 -55.65625 L 1.792969 -39.804688 C 1.792969 -38.800781 2.582031 -38.011719 3.585938 -38.011719 L 10.757812 -38.011719 C 11.761719 -38.011719 12.625 -37.222656 12.625 -36.21875 L 12.625 -1.792969 C 12.625 -0.789062 13.484375 0 14.488281 0 Z M 14.488281 0 "/></g></g></g><g fill="#ffffff" fill-opacity="1"><g transform="translate(266.787726, 146.249993)"><g><path d="M 3.65625 0 L 57.449219 0 C 58.453125 0 59.242188 -0.789062 59.242188 -1.792969 L 59.242188 -15.421875 C 59.242188 -16.425781 58.382812 -17.214844 57.378906 -17.214844 L 25.101562 -17.214844 C 24.097656 -17.214844 23.308594 -18.003906 23.308594 -19.007812 C 23.308594 -20.011719 24.097656 -20.800781 25.101562 -20.800781 L 54.582031 -20.800781 C 55.585938 -20.800781 56.375 -21.589844 56.375 -22.59375 L 56.375 -34.785156 C 56.375 -35.789062 55.511719 -36.578125 54.507812 -36.578125 L 25.101562 -36.578125 C 24.097656 -36.578125 23.308594 -37.367188 23.308594 -38.371094 C 23.308594 -39.375 24.097656 -40.164062 25.101562 -40.164062 L 57.449219 -40.164062 C 58.453125 -40.164062 59.242188 -40.953125 59.242188 -41.957031 L 59.242188 -55.585938 C 59.242188 -56.589844 58.453125 -57.378906 57.449219 -57.378906 L 3.585938 -57.378906 C 2.582031 -57.378906 1.792969 -56.589844 1.792969 -55.585938 L 1.792969 -1.792969 C 1.792969 -0.789062 2.652344 0 3.65625 0 Z M 3.65625 0 "/></g></g></g></svg>