<svg xmlns="http://www.w3.org/2000/svg" xmlns:xlink="http://www.w3.org/1999/xlink" width="512" zoomAndPan="magnify" viewBox="0 0 384 383.999986" height="512" preserveAspectRatio="xMidYMid meet" version="1.0"><path fill="#008037" d="M 192 176 C 174.320312 176 160 190.320312 160 208 C 160 225.679688 174.320312 240 192 240 C 209.679688 240 224 225.679688 224 208 C 224 190.320312 209.679688 176 192 176 Z M 288 208 C 288 154.960938 245.039062 112 192 112 C 138.960938 112 96 154.960938 96 208 C 96 243.519531 115.28125 274.398438 143.921875 291.039062 L 160.078125 263.199219 C 140.960938 252.078125 128 231.679688 128 208 C 128 172.640625 156.640625 144 192 144 C 227.359375 144 256 172.640625 256 208 C 256 231.679688 243.039062 252.078125 223.921875 263.121094 L 240.078125 290.960938 C 268.71875 274.398438 288 243.519531 288 208 Z M 192 48 C 103.601562 48 32 119.601562 32 208 C 32 267.121094 64.160156 318.640625 111.921875 346.320312 L 127.921875 318.640625 C 89.761719 296.558594 64 255.28125 64 208 C 64 137.28125 121.28125 80 192 80 C 262.71875 80 320 137.28125 320 208 C 320 255.28125 294.238281 296.558594 256.078125 318.71875 L 272.078125 346.398438 C 319.839844 318.640625 352 267.121094 352 208 C 352 119.601562 280.320312 48 192 48 Z M 192 48 " fill-opacity="1" fill-rule="nonzero"/></svg>